HIERARCHY
ROOT Armature
{
  OFFSET 1.9679 50.7869 13.0653
  CHANNELS 6 Xposition Yposition Zposition Zrotation Xrotation Yrotation
  JOINT Core
  {
    OFFSET -0.635206 16.8572 -51.0592
    CHANNELS 6 Xposition Yposition Zposition Zrotation Xrotation Yrotation
    JOINT FrontLegIK.L
    {
      OFFSET 10.7636 40.3514 -10.2983
      CHANNELS 6 Xposition Yposition Zposition Zrotation Xrotation Yrotation
      JOINT FrontPaw.L
      {
        OFFSET 0 1.73155e-005 0
        CHANNELS 6 Xposition Yposition Zposition Zrotation Xrotation Yrotation
        End Site
        {
          OFFSET 0 4.33935 0
        }
      }
      JOINT FrontLegIKPole.L
      {
        OFFSET 0 27.4489 11.7029
        CHANNELS 6 Xposition Yposition Zposition Zrotation Xrotation Yrotation
        End Site
        {
          OFFSET 0 6.85387 0
        }
      }
    }
    JOINT BackLegIK.L
    {
      OFFSET 14.1749 -5.27545 -3.7701
      CHANNELS 6 Xposition Yposition Zposition Zrotation Xrotation Yrotation
      JOINT BackPaw.L
      {
        OFFSET 0 -1.20246e-005 1.26259e-005
        CHANNELS 6 Xposition Yposition Zposition Zrotation Xrotation Yrotation
        End Site
        {
          OFFSET 0 4.80673 0
        }
      }
      JOINT BackLegIKPole.L
      {
        OFFSET 0.227833 17.573 11.6015
        CHANNELS 6 Xposition Yposition Zposition Zrotation Xrotation Yrotation
        End Site
        {
          OFFSET 0 5.63838 0
        }
      }
    }
    JOINT BackLegIK.R
    {
      OFFSET -12.9044 -19.1551 -5.86817
      CHANNELS 6 Xposition Yposition Zposition Zrotation Xrotation Yrotation
      JOINT BackPaw.R
      {
        OFFSET 0 0 0
        CHANNELS 6 Xposition Yposition Zposition Zrotation Xrotation Yrotation
        End Site
        {
          OFFSET 0 4.80673 0
        }
      }
      JOINT BackLegIKPole.R
      {
        OFFSET -0.227834 17.573 11.6014
        CHANNELS 6 Xposition Yposition Zposition Zrotation Xrotation Yrotation
        End Site
        {
          OFFSET 0 5.63838 0
        }
      }
    }
    JOINT FrontLegIK.R
    {
      OFFSET -9.4932 30.6679 -2.7129
      CHANNELS 6 Xposition Yposition Zposition Zrotation Xrotation Yrotation
      JOINT FrontPaw.R
      {
        OFFSET 0 0 0
        CHANNELS 6 Xposition Yposition Zposition Zrotation Xrotation Yrotation
        End Site
        {
          OFFSET 0 4.33935 0
        }
      }
      JOINT FrontLegIKPole.R
      {
        OFFSET 0 27.4489 11.7029
        CHANNELS 6 Xposition Yposition Zposition Zrotation Xrotation Yrotation
        End Site
        {
          OFFSET 0 6.85387 0
        }
      }
    }
    JOINT SpineCtrl
    {
      OFFSET 0.635178 21.1139 -50.8686
      CHANNELS 6 Xposition Yposition Zposition Zrotation Xrotation Yrotation
      JOINT Spine2.001
      {
        OFFSET 0 0 0
        CHANNELS 6 Xposition Yposition Zposition Zrotation Xrotation Yrotation
        JOINT Spine2
        {
          OFFSET 0 12.1749 0
          CHANNELS 6 Xposition Yposition Zposition Zrotation Xrotation Yrotation
          JOINT Spine1
          {
            OFFSET 0 12.1749 0
            CHANNELS 6 Xposition Yposition Zposition Zrotation Xrotation Yrotation
            JOINT TailBottom
            {
              OFFSET 0 48.2991 5.34964
              CHANNELS 6 Xposition Yposition Zposition Zrotation Xrotation Yrotation
              End Site
              {
                OFFSET 0 0 0
              }
            }
            JOINT Tail1
            {
              OFFSET -0.574857 14.3966 0.537233
              CHANNELS 6 Xposition Yposition Zposition Zrotation Xrotation Yrotation
              JOINT Tail2
              {
                OFFSET 0 7.84149 0
                CHANNELS 6 Xposition Yposition Zposition Zrotation Xrotation Yrotation
                JOINT Tail3
                {
                  OFFSET 0 9.03055 0
                  CHANNELS 6 Xposition Yposition Zposition Zrotation Xrotation Yrotation
                  JOINT Tail4
                  {
                    OFFSET 0 8.20515 0
                    CHANNELS 6 Xposition Yposition Zposition Zrotation Xrotation Yrotation
                    JOINT Tail5
                    {
                      OFFSET 0 9.4978 0
                      CHANNELS 6 Xposition Yposition Zposition Zrotation Xrotation Yrotation
                      JOINT Tail6
                      {
                        OFFSET 0 6.51884 0
                        CHANNELS 6 Xposition Yposition Zposition Zrotation Xrotation Yrotation
                        End Site
                        {
                          OFFSET 0 6.10884 0
                        }
                      }
                    }
                  }
                }
              }
            }
            JOINT Bone
            {
              OFFSET 33.4069 38.6443 -2.41513
              CHANNELS 6 Xposition Yposition Zposition Zrotation Xrotation Yrotation
              JOINT TailTop
              {
                OFFSET 0 2.50112e-005 0
                CHANNELS 6 Xposition Yposition Zposition Zrotation Xrotation Yrotation
                End Site
                {
                  OFFSET 0 0 0
                }
              }
              JOINT Bone_end
              {
                OFFSET 0 12.2515 0
                CHANNELS 6 Xposition Yposition Zposition Zrotation Xrotation Yrotation
                End Site
                {
                  OFFSET 0 0 0
                }
              }
            }
            JOINT BackLeg1.L
            {
              OFFSET -1.91713 6.86269 -1.74095
              CHANNELS 6 Xposition Yposition Zposition Zrotation Xrotation Yrotation
              JOINT BackLeg2.L
              {
                OFFSET 0 10.1896 0
                CHANNELS 6 Xposition Yposition Zposition Zrotation Xrotation Yrotation
                JOINT BackLeg3.L
                {
                  OFFSET 0 27.6585 0
                  CHANNELS 6 Xposition Yposition Zposition Zrotation Xrotation Yrotation
                  JOINT BackLeg4.L
                  {
                    OFFSET 0 20.2079 0
                    CHANNELS 6 Xposition Yposition Zposition Zrotation Xrotation Yrotation
                    End Site
                    {
                      OFFSET 0 15.8172 0
                    }
                  }
                }
              }
            }
            JOINT BackLeg1.R
            {
              OFFSET -1.64678 6.86269 1.99861
              CHANNELS 6 Xposition Yposition Zposition Zrotation Xrotation Yrotation
              JOINT BackLeg2.R
              {
                OFFSET 0 11.0754 0
                CHANNELS 6 Xposition Yposition Zposition Zrotation Xrotation Yrotation
                JOINT BackLeg3.R
                {
                  OFFSET 0 25.8903 0
                  CHANNELS 6 Xposition Yposition Zposition Zrotation Xrotation Yrotation
                  JOINT BackLeg4.R
                  {
                    OFFSET 0 20.2079 0
                    CHANNELS 6 Xposition Yposition Zposition Zrotation Xrotation Yrotation
                    End Site
                    {
                      OFFSET 0 15.8171 0
                    }
                  }
                }
              }
            }
          }
        }
      }
      JOINT Spine3
      {
        OFFSET 0 0 0
        CHANNELS 6 Xposition Yposition Zposition Zrotation Xrotation Yrotation
        JOINT Neck
        {
          OFFSET 0 14.1391 0
          CHANNELS 6 Xposition Yposition Zposition Zrotation Xrotation Yrotation
          JOINT Head2
          {
            OFFSET 0 2.99801 0
            CHANNELS 6 Xposition Yposition Zposition Zrotation Xrotation Yrotation
            End Site
            {
              OFFSET 0 6.46164 0
            }
          }
        }
        JOINT HeadIK
        {
          OFFSET -0.175681 20.3563 -7.09281
          CHANNELS 6 Xposition Yposition Zposition Zrotation Xrotation Yrotation
          JOINT Head
          {
            OFFSET 0 0 0
            CHANNELS 6 Xposition Yposition Zposition Zrotation Xrotation Yrotation
            JOINT Ear.L
            {
              OFFSET 11.0469 5.26744 -12.0054
              CHANNELS 6 Xposition Yposition Zposition Zrotation Xrotation Yrotation
              End Site
              {
                OFFSET 0 10.1211 0
              }
            }
            JOINT Ear.R
            {
              OFFSET -8.84548 5.02071 -13.5443
              CHANNELS 6 Xposition Yposition Zposition Zrotation Xrotation Yrotation
              End Site
              {
                OFFSET 0 10.1211 0
              }
            }
          }
          JOINT Eyes.Base
          {
            OFFSET 0.675326 25.1229 -12.9166
            CHANNELS 6 Xposition Yposition Zposition Zrotation Xrotation Yrotation
            End Site
            {
              OFFSET 0 4.98183 0
            }
          }
          JOINT Eyes.Target
          {
            OFFSET 0.675326 25.1229 -12.9166
            CHANNELS 6 Xposition Yposition Zposition Zrotation Xrotation Yrotation
            End Site
            {
              OFFSET 0 10.8137 0
            }
          }
        }
        JOINT FrontLeg1.L
        {
          OFFSET 6.15836 4.29787 -0.644035
          CHANNELS 6 Xposition Yposition Zposition Zrotation Xrotation Yrotation
          JOINT FrontLeg2.L
          {
            OFFSET 0 18.7233 0
            CHANNELS 6 Xposition Yposition Zposition Zrotation Xrotation Yrotation
            JOINT FrontLeg3.L
            {
              OFFSET 0 16.9177 0
              CHANNELS 6 Xposition Yposition Zposition Zrotation Xrotation Yrotation
              JOINT FrontLeg4.L
              {
                OFFSET 0 10.6804 0
                CHANNELS 6 Xposition Yposition Zposition Zrotation Xrotation Yrotation
                End Site
                {
                  OFFSET 0 9.99857 0
                }
              }
            }
          }
        }
        JOINT FrontLeg1.R
        {
          OFFSET -5.81052 4.29786 -0.644037
          CHANNELS 6 Xposition Yposition Zposition Zrotation Xrotation Yrotation
          JOINT FrontLeg2.R
          {
            OFFSET 0 18.8001 0
            CHANNELS 6 Xposition Yposition Zposition Zrotation Xrotation Yrotation
            JOINT FrontLeg3.R
            {
              OFFSET 0 16.9176 0
              CHANNELS 6 Xposition Yposition Zposition Zrotation Xrotation Yrotation
              JOINT FrontLeg4.R
              {
                OFFSET 0 10.6804 0
                CHANNELS 6 Xposition Yposition Zposition Zrotation Xrotation Yrotation
                End Site
                {
                  OFFSET 0 9.99855 0
                }
              }
            }
          }
        }
      }
    }
  }
  JOINT Bone.001
  {
    OFFSET 0 -39.5765 2.47907
    CHANNELS 6 Xposition Yposition Zposition Zrotation Xrotation Yrotation
    End Site
    {
      OFFSET 0 9.50183 0
    }
  }
  JOINT Bone.002
  {
    OFFSET 6.39762 -39.5765 2.47907
    CHANNELS 6 Xposition Yposition Zposition Zrotation Xrotation Yrotation
    End Site
    {
      OFFSET 0 5.86173 0
    }
  }
}
MOTION
Frames:	4
Frame Time:	0.0416667
1.9679 50.7869 13.0653 -180 -90 -180 -0.635206 16.8572 -51.0592 -180 7.01671e-015 180 10.7636 29.3767 -2.71292 -7.01671e-015 7.01671e-015 -180 -2.64542e-006 1.10627e-005 -1.15436e-005 -7.41201e-006 -35.3567 180 -1.92394e-006 27.4489 11.7029 0 0 -1.92796e-021 15.5523 11.4793 -2.96314 -11.4381 5.79999 -178.421 4.57349e-007 -5.34685e-006 -1.92394e-006 -16.259 -29.4394 -180 3.35735 15.8404 11.6014 -5.49409 -5.35923e-013 3.43122e-012 -13.524 12.9836 -3.63707 12.764 8.72928e-006 -180 2.62179e-006 -4.24962e-007 3.84788e-006 16.259 -29.4393 -180 -3.35735 15.8404 11.6014 5.49409 -1.51661e-021 -6.36111e-015 -9.4932 29.3767 -2.7129 -7.01671e-015 7.01671e-015 -180 -7.21477e-007 1.44295e-006 4.47952e-016 1.35321e-006 -35.3568 -180 0 27.4489 11.7029 0 0 -1.92796e-021 0.635179 21.0449 -50.1849 180 -79.4416 180 1.62299e-006 -2.53223 -3.65871 179.997 -84.13 89.9958 3.9074e-007 12.1749 -5.81957e-012 2.57337 6.97511e-005 -5.37335e-006 -4.84449e-007 12.1749 1.26018e-011 -14.82 -0.00019327 -4.13415 3.48714e-006 48.2991 5.34964 -0.450778 -21.691 -40.3435 5.75316 13.862 0.0797522 -48.7376 -21.5467 -0.22009 -1.78162e-006 7.88192 5.93716e-007 1.07477 -2.782 0.0190192 -2.44685e-006 9.01717 -3.76355e-007 6.19809 13.1397 -1.21435 -6.39074e-007 8.18008 -1.2331e-006 6.04683 14.4423 -0.910029 -3.47586e-006 9.46227 -1.03577e-007 3.01191 7.55272 -0.194591 3.14219e-007 5.63395 -5.96039e-007 0.0465475 -0.103478 -0.056507 17.4299 42.95 -7.36808 43.299 6.15266 -30.9021 -9.61969e-006 2.30873e-005 -1.08222e-006 1.16443e-006 -0.249878 -1.30359e-006 7.16723e-015 12.2515 -7.16723e-015 0 0 -0 -1.46391 5.54288 -1.81098 39.2826 -26.2641 -127.853 4.80985e-007 10.1896 -1.50308e-006 -118.904 69.1586 -98.2246 -9.77e-007 27.6585 -1.02209e-006 -122.95 84.1439 135.353 -1.35277e-006 20.2079 -2.02915e-006 -179.468 -55.8837 -177.173 -0.922776 5.66694 1.99391 50.3492 29.5578 -52.5442 2.40492e-007 11.0754 -1.80369e-006 96.2544 74.0497 113.013 -2.40492e-007 25.8903 -8.41723e-007 154.076 87.0575 -168.791 1.79181e-015 20.2079 3.20155e-006 179.457 -56.4615 177.164 2.74774e-008 -1.79618e-006 -4.98833e-007 6.04003e-005 76.7518 -4.81444e-005 8.62308e-014 14.1391 -3.00615e-007 10.7132 -50.9194 17.51 -1.50308e-008 2.99801 9.33787e-007 -7.57607 5.13288 -10.7609 -0.175681 20.3563 -7.09281 -0.631438 39.2148 3.56413 6.13443e-007 -7.07127e-006 -2.51531e-006 -0.184782 0.630238 1.26632 11.0469 5.26744 -12.0054 -80.468 -53.9038 -171.486 -8.84548 5.02071 -13.5443 79.3821 -62.6168 168.546 0.675325 25.1229 -12.9166 10.3639 72.1295 169.636 0.675326 25.1229 -12.9166 10.3637 72.1295 169.636 6.15836 4.29787 -0.644035 -48.4227 73.5339 44.3584 -1.08222e-006 18.7233 6.61354e-007 5.68871 66.8108 7.13949 2.96747e-007 16.9177 -1.96557e-006 -7.30682e-005 -34.5105 9.63878e-006 2.5367e-007 10.6804 1.91091e-007 -2.04375e-005 -11.1317 -5.24035e-005 -5.81052 4.29786 -0.644037 50.7972 72.7593 -48.5755 2.40492e-007 18.8001 9.77e-007 -11.2001 66.5589 -2.26631 -5.05459e-007 16.9176 2.78165e-007 -0.000273249 -34.5103 1.80751e-005 3.0266e-007 10.6804 8.15126e-007 -3.35426e-005 -11.1316 -0.000144457 4.20862e-006 -39.5765 2.47907 -180 90 -180 6.39762 -39.5765 2.47907 -180 90 -180 
1.9679 50.7869 13.0653 -180 -90 -180 -0.635206 16.8572 -51.0592 -180 7.01671e-015 180 10.7636 29.3767 -2.71292 -7.01671e-015 7.01671e-015 -180 -2.72558e-006 1.11161e-005 -1.23987e-005 -7.41201e-006 -35.3567 180 -1.92394e-006 27.4489 11.7029 0 0 -1.92796e-021 15.9029 13.7561 -2.96314 -14.3441 4.97265 -178.513 3.75577e-007 -4.87209e-006 -1.71017e-006 -22.888 -29.4394 -180 4.59565 15.1549 11.6014 -7.67517 -5.97149e-013 3.45249e-012 -13.897 16.3473 -2.96312 15.265 9.6992e-006 -180 2.78051e-006 -6.85951e-007 2.99279e-006 22.888 -29.4393 -180 -4.59565 15.1549 11.6014 7.67517 7.58303e-022 -5.65432e-015 -9.4932 29.3767 -2.7129 -7.01671e-015 7.01671e-015 -180 -4.80985e-007 1.92394e-006 4.27542e-007 1.35321e-006 -35.3568 -180 0 27.4489 11.7029 0 0 -1.92796e-021 0.635179 21.0449 -49.8899 180 -79.4416 180 1.80027e-006 -3.5342 -5.10641 179.999 -77.2802 89.9978 4.34162e-007 12.1749 -6.4729e-012 3.5924 7.74713e-005 -6.00388e-006 -5.37513e-007 12.1749 1.40305e-011 -12.2817 -0.000180643 -4.13414 3.48714e-006 48.2991 5.34964 -0.450778 -21.691 -40.3435 6.44489 13.2972 0.0297442 -56.0999 -30.8551 -3.98817 -1.51853e-006 7.81029 6.61354e-007 0.590234 -5.81515 0.0147969 -1.80077e-006 8.9971 -4.41666e-007 11.709 19.632 -2.79416 -5.41339e-007 8.07599 -1.36414e-006 15.6997 28.287 -4.28706 -3.47787e-006 9.34115 -1.32758e-007 2.48155 5.02415 -0.107678 -1.56806e-008 4.81813 -6.79755e-007 0.0465476 -0.103478 -0.0565088 14.4786 38.4458 -9.57156 55.2725 2.96921 -49.7599 -8.97838e-006 2.28735e-005 -1.38951e-006 1.08186e-006 -0.249878 -1.44323e-006 -3.58361e-015 12.2515 0 1.59028e-015 3.18055e-015 -3.18055e-015 -1.28458 5.02065 -1.83869 39.2826 -26.2641 -127.853 4.27542e-007 10.1896 -1.57656e-006 -113.416 69.0252 -101.246 -1.24588e-006 27.6585 -7.7492e-007 -150.491 73.6308 162.669 -1.42959e-006 20.2079 -1.94732e-006 -179.634 -45.4372 -177.302 -0.636295 5.19379 1.99197 50.3492 29.5578 -52.5442 3.20656e-007 11.0754 -1.63e-006 89.6912 73.3882 117.18 -1.60328e-007 25.8903 -5.07706e-007 157.954 79.9685 -173.373 -4.00821e-008 20.2079 3.0763e-006 179.567 -50.2245 177.253 2.74774e-008 -1.78365e-006 -4.9685e-007 5.74513e-005 75.8966 -4.52789e-005 8.26471e-014 14.1391 -3.47377e-007 10.7131 -50.9194 17.5099 -6.68034e-009 2.99801 8.71367e-007 -7.57603 5.13285 -10.7609 -0.175681 20.3563 -7.09281 -0.631438 39.2148 3.56413 5.9977e-007 -6.91119e-006 -2.6521e-006 -0.184782 0.630238 1.26632 11.0469 5.26744 -12.0054 -80.468 -53.9038 -171.486 -8.84548 5.02071 -13.5443 79.3821 -62.6168 168.546 0.675325 25.1229 -12.9166 10.3639 72.1294 169.636 0.675326 25.1229 -12.9166 10.3637 72.1295 169.636 6.15836 4.29787 -0.644035 -48.4227 73.5339 44.3584 -1.01541e-006 18.7233 8.38383e-007 5.21748 68.207 7.57491 3.4394e-007 16.9177 -2.15467e-006 -7.35769e-005 -34.8218 9.31894e-006 2.85607e-007 10.6804 3.78619e-007 -2.08536e-005 -11.349 -5.24721e-005 -5.81052 4.29786 -0.644037 50.7972 72.7593 -48.5755 2.67214e-007 18.8001 8.55084e-007 -11.0517 67.9655 -2.40317 -5.82904e-007 16.9176 2.27217e-007 -0.000287292 -34.8217 6.38926e-006 3.15794e-007 10.6804 8.70689e-007 -3.44753e-005 -11.3489 -0.000144655 4.20862e-006 -39.5765 2.47907 -180 90 -180 6.39762 -39.5765 2.47907 -180 90 -180 
1.9679 50.7869 13.0653 -180 -90 -180 -0.635206 16.8572 -51.0592 -180 7.01671e-015 180 9.46523 29.6129 -5.1038 -7.01671e-015 7.01671e-015 -180 -2.80574e-006 1.11695e-005 -1.32538e-005 -7.41201e-006 -35.3567 180 -1.92394e-006 27.4489 11.7029 0 0 -1.92796e-021 16.256 16.0343 -2.96314 -17.2703 4.06117 -178.605 2.93805e-007 -4.39733e-006 -1.4964e-006 -30 -29.4394 -180 5.91453 14.4247 11.6014 -10 -6.5758e-013 3.47267e-012 -14.2583 18.917 -2.96312 17.5337 1.06691e-005 -180 2.93923e-006 -9.4694e-007 2.13771e-006 30 -29.4393 -180 -5.91453 14.4247 11.6014 10 2.27491e-021 -4.94753e-015 -9.4932 29.3767 -2.7129 -7.01671e-015 7.01671e-015 -180 -2.40492e-007 2.40492e-006 8.55084e-007 1.35321e-006 -35.3568 -180 0 27.4489 11.7029 0 0 -1.92796e-021 0.635179 21.0449 -49.5757 180 -79.4416 180 1.97755e-006 -4.60137 -6.64832 179.999 -69.9203 89.9984 4.77585e-007 12.1749 -7.12602e-012 4.67795 8.51915e-005 -6.63442e-006 -5.90577e-007 12.1749 1.54586e-011 -9.57489 -0.000141851 -4.13414 3.48714e-006 48.2991 5.34964 -0.450778 -21.691 -40.3435 6.60495 12.7773 0.0181725 -62.7928 -36.1094 -7.68003 -1.25544e-006 7.76431 7.28993e-007 -1.60292 -10.548 -0.176079 -1.15468e-006 9.01653 -5.06999e-007 13.5248 15.7075 -2.47825 -4.43603e-007 7.97553 -1.49524e-006 44.1636 44.6726 -19.5431 -3.50163e-006 8.90732 -1.63373e-007 3.11591 4.5834 -0.123318 -3.47971e-007 4.59293 -7.6981e-007 0.0465477 -0.103478 -0.0565107 11.4039 33.6753 -11.9234 67.2917 -5.43102 -70.8074 -8.33707e-006 2.26597e-005 -1.69681e-006 9.99292e-007 -0.249878 -1.58288e-006 1.79181e-015 12.2515 0 -5.96354e-016 0 -3.18055e-015 -1.09358 4.46443 -1.8682 39.2826 -26.2641 -127.853 3.74099e-007 10.1896 -1.65004e-006 -107.657 68.7472 -104.37 -1.51477e-006 27.6585 -5.27747e-007 -155.939 60.2883 168.542 -1.50642e-006 20.2079 -1.86549e-006 -179.722 -37.6641 -177.36 -0.331174 4.68985 1.99003 50.3492 29.5578 -52.5442 4.00821e-007 11.0754 -1.45631e-006 83.1757 72.5448 121.133 -8.01641e-008 25.8903 -1.73689e-007 157.847 69.158 -174.871 -8.01641e-008 20.2079 2.95104e-006 179.666 -42.8012 177.325 2.74774e-008 -1.77113e-006 -4.94866e-007 5.46725e-005 74.9856 -4.25892e-005 7.97355e-014 14.1391 -3.94139e-007 10.7131 -50.9194 17.5099 1.67009e-009 2.99801 8.08948e-007 -7.57599 5.13283 -10.7609 -0.175681 20.3563 -7.09281 -0.631438 39.2148 3.56413 5.86096e-007 -6.75111e-006 -2.78889e-006 -0.184782 0.630238 1.26632 11.0469 5.26744 -12.0054 -80.468 -53.9038 -171.486 -8.84548 5.02071 -13.5443 79.3821 -62.6168 168.546 0.675325 25.1229 -12.9166 10.3639 72.1294 169.636 0.675326 25.1229 -12.9166 10.3637 72.1295 169.636 6.15836 4.29787 -0.644035 -48.4227 73.5339 44.3584 -9.48609e-007 18.7233 1.01541e-006 3.85673 78.9823 11.2424 3.91132e-007 16.9177 -2.34378e-006 -7.13254e-005 -47.1862 1.08265e-005 3.17545e-007 10.6804 5.66148e-007 -2.97178e-005 -20.2425 -5.48631e-005 -5.81052 4.29786 -0.644037 50.7972 72.7593 -48.5755 2.93935e-007 18.8001 7.33168e-007 -10.8756 69.4389 -2.56722 -6.60349e-007 16.9176 1.76269e-007 -0.00030149 -35.1272 -5.38472e-006 3.28927e-007 10.6804 9.26252e-007 -3.53993e-005 -11.5623 -0.000144853 4.20862e-006 -39.5765 2.47907 -180 90 -180 6.39762 -39.5765 2.47907 -180 90 -180 
1.9679 50.7869 13.0653 -180 -90 -180 -0.635206 16.8572 -51.0592 -180 7.01671e-015 180 7.46022 31.2659 -7.49469 -7.01671e-015 7.01671e-015 -180 -2.88591e-006 1.1223e-005 -1.41089e-005 -7.41201e-006 -35.3567 180 -1.92394e-006 27.4489 11.7029 0 0 -1.92796e-021 16.595 18.2122 -2.96314 -20.0749 3.13656 -178.696 2.12033e-007 -3.92257e-006 -1.28263e-006 -37.1121 -29.4394 -180 7.23342 13.6946 11.6014 -12.3248 -7.16818e-013 3.49384e-012 -14.6711 21.087 -2.96312 19.9534 1.1639e-005 -180 3.09795e-006 -1.20793e-006 1.28263e-006 37.112 -29.4393 -180 -7.23342 13.6946 11.6014 12.3248 1.51661e-021 -4.24074e-015 -9.4932 29.3767 -2.7129 -7.01671e-015 7.01671e-015 -180 -1.79181e-015 2.88591e-006 1.28263e-006 1.35321e-006 -35.3568 -180 0 27.4489 11.7029 0 0 -1.92796e-021 0.63518 21.0449 -49.2616 180 -79.4416 180 2.15483e-006 -5.66854 -8.19022 180 -62.5528 89.9988 5.21007e-007 12.1749 -7.77891e-012 5.76353 9.29116e-005 -7.26495e-006 -6.43641e-007 12.1749 1.68871e-011 -6.86761 -0.000103059 -4.13414 3.48714e-006 48.2991 5.34964 -0.450778 -21.691 -40.3435 6.2301 12.4489 0.0452724 -65.601 -35.9804 -8.67371 -9.92344e-007 7.77126 7.96631e-007 -3.76721 -13.0206 -0.464882 -5.08571e-007 9.02212 -5.72355e-007 9.18186 3.79695 -0.448511 -3.45865e-007 8.0661 -1.62639e-006 85.0132 37.6604 -35.2615 -3.51781e-006 7.79406 -1.90974e-007 5.40464 4.45393 -0.206175 -6.83142e-007 4.11547 -8.4547e-007 0.0465479 -0.103479 -0.0565125 8.37822 28.9238 -14.2788 75.9394 -17.7295 -90.7683 -7.69575e-006 2.24459e-005 -2.0041e-006 9.16723e-007 -0.249878 -1.72253e-006 3.58361e-015 12.2515 3.58361e-015 -2.78299e-015 -6.36111e-015 -1.59028e-015 -0.902578 3.90822 -1.89771 39.2826 -26.2641 -127.853 3.20656e-007 10.1896 -1.72353e-006 -101.987 68.4046 -107.404 -1.78365e-006 27.6585 -2.80574e-007 -157.467 45.5226 171.697 -1.58324e-006 20.2079 -1.78365e-006 -179.76 -33.6686 -177.383 -0.0260522 4.18592 1.98809 50.3492 29.5578 -52.5442 4.80985e-007 11.0754 -1.28263e-006 77.1646 71.5797 124.574 0 25.8903 1.60328e-007 157.18 56.3418 -176.515 -1.20246e-007 20.2079 2.82578e-006 179.716 -38.2792 177.357 2.74774e-008 -1.7586e-006 -4.92883e-007 5.22046e-005 74.0746 -4.02107e-005 7.65998e-014 14.1391 -4.40902e-007 10.713 -50.9194 17.5099 1.00205e-008 2.99801 7.46528e-007 -7.57595 5.1328 -10.7609 -0.175681 20.3563 -7.09281 -0.631438 39.2148 3.56413 5.72422e-007 -6.59103e-006 -2.92568e-006 -0.184782 0.630238 1.26632 11.0469 5.26744 -12.0054 -80.468 -53.9038 -171.486 -8.84548 5.02071 -13.5443 79.3821 -62.6168 168.546 0.675325 25.1229 -12.9166 10.3638 72.1294 169.636 0.675326 25.1229 -12.9166 10.3637 72.1295 169.636 6.15836 4.29787 -0.644035 -48.4227 73.5339 44.3584 -8.81805e-007 18.7233 1.19244e-006 8.46499 85.3824 10.9216 4.38324e-007 16.9177 -2.53288e-006 -6.87509e-005 -57.0135 1.29775e-005 3.49482e-007 10.6804 7.53676e-007 -3.80584e-005 -27.7658 -5.82048e-005 -5.81052 4.29786 -0.644037 50.7972 72.7593 -48.5755 3.20657e-007 18.8001 6.11251e-007 -10.6772 70.8879 -2.75388 -7.37794e-007 16.9176 1.25321e-007 -0.000315833 -35.4076 -1.72422e-005 3.42061e-007 10.6804 9.81815e-007 -3.628e-005 -11.7583 -0.000145044 4.20862e-006 -39.5765 2.47907 -180 90 -180 6.39762 -39.5765 2.47907 -180 90 -180 
